<?xml version="1.0" encoding="UTF-8"?>
<svg width="120" height="40" viewBox="0 0 120 40" fill="none" xmlns="http://www.w3.org/2000/svg">
    <!-- BASF Logo -->
    <path d="M0 0H120V40H0V0Z" fill="#1D4F91"/>
    <path d="M15 10H30C33.866 10 37 13.134 37 17C37 20.866 33.866 24 30 24H25V30H15V10ZM25 14V20H28C29.105 20 30 18.9 30 17.5C30 16.1 29.105 15 28 15H25Z" fill="white"/>
    <path d="M40 10H60V14H50V17H58V21H50V26H60V30H40V10Z" fill="white"/>
    <path d="M65 10H75V20.5C75 22.5 76.5 24 78.5 24C80.5 24 82 22.5 82 20.5V10H92V21C92 26 87.5 30.5 82.5 30.5C77.5 30.5 73 26 73 21V14H65V10Z" fill="white"/>
    <path d="M95 10H105V30H95V10Z" fill="white"/>
</svg>